<svg version="1.1" xmlns="http://www.w3.org/2000/svg" viewBox="0 0 578.2633046892415 202.83333333333348" width="578.2633046892415" height="202.83333333333348" filter="invert(93%) hue-rotate(180deg)">
  <!-- svg-source:excalidraw -->
  
  <defs>
    <style class="style-fonts">
      @font-face {
        font-family: "Virgil";
        src: url("https://excalidraw.com/Virgil.woff2");
      }
      @font-face {
        font-family: "Cascadia";
        src: url("https://excalidraw.com/Cascadia.woff2");
      }
      @font-face {
        font-family: "Assistant";
        src: url("https://excalidraw.com/Assistant-Regular.woff2");
      }
    </style>
    
  </defs>
  <g stroke-linecap="round"><g transform="translate(511.7398534744466 69.21104416368769) rotate(0 -0.0553236139044202 32.08333333333334)"><path d="M0 0 C-0.04 25.01, -0.09 50.02, -0.11 64.17 M0 0 C-0.03 18.38, -0.06 36.76, -0.11 64.17" stroke="#1e1e1e" stroke-width="2" fill="none"></path></g><g transform="translate(511.7398534744466 69.21104416368769) rotate(0 -0.0553236139044202 32.08333333333334)"><path d="M-8.62 40.66 C-5.3 49.82, -1.99 58.99, -0.11 64.17 M-8.62 40.66 C-6.18 47.39, -3.75 54.13, -0.11 64.17" stroke="#1e1e1e" stroke-width="2" fill="none"></path></g><g transform="translate(511.7398534744466 69.21104416368769) rotate(0 -0.0553236139044202 32.08333333333334)"><path d="M8.48 40.69 C5.13 49.84, 1.78 58.99, -0.11 64.17 M8.48 40.69 C6.02 47.41, 3.56 54.14, -0.11 64.17" stroke="#1e1e1e" stroke-width="2" fill="none"></path></g></g><mask></mask><g stroke-linecap="round"><g transform="translate(398.1504344378234 68.69237101740168) rotate(0 -0.05532361390430651 32.08333333333334)"><path d="M0 0 C-0.03 14.99, -0.05 29.97, -0.11 64.17 M0 0 C-0.03 18.47, -0.06 36.94, -0.11 64.17" stroke="#1e1e1e" stroke-width="2" fill="none"></path></g><g transform="translate(398.1504344378234 68.69237101740168) rotate(0 -0.05532361390430651 32.08333333333334)"><path d="M-8.62 40.66 C-6.63 46.15, -4.65 51.64, -0.11 64.17 M-8.62 40.66 C-6.17 47.43, -3.72 54.19, -0.11 64.17" stroke="#1e1e1e" stroke-width="2" fill="none"></path></g><g transform="translate(398.1504344378234 68.69237101740168) rotate(0 -0.05532361390430651 32.08333333333334)"><path d="M8.48 40.69 C6.47 46.17, 4.47 51.66, -0.11 64.17 M8.48 40.69 C6.01 47.45, 3.53 54.21, -0.11 64.17" stroke="#1e1e1e" stroke-width="2" fill="none"></path></g></g><mask></mask><g stroke-linecap="round"><g transform="translate(284.56101540120017 68.6923710174018) rotate(0 -0.0553236139044202 32.08333333333334)"><path d="M0 0 C-0.04 25.28, -0.09 50.55, -0.11 64.17 M0 0 C-0.04 25.17, -0.09 50.34, -0.11 64.17" stroke="#1e1e1e" stroke-width="2" fill="none"></path></g><g transform="translate(284.56101540120017 68.6923710174018) rotate(0 -0.0553236139044202 32.08333333333334)"><path d="M-8.62 40.66 C-5.27 49.92, -1.92 59.18, -0.11 64.17 M-8.62 40.66 C-5.28 49.88, -1.94 59.1, -0.11 64.17" stroke="#1e1e1e" stroke-width="2" fill="none"></path></g><g transform="translate(284.56101540120017 68.6923710174018) rotate(0 -0.0553236139044202 32.08333333333334)"><path d="M8.48 40.69 C5.1 49.94, 1.71 59.19, -0.11 64.17 M8.48 40.69 C5.11 49.9, 1.74 59.11, -0.11 64.17" stroke="#1e1e1e" stroke-width="2" fill="none"></path></g></g><mask></mask><g stroke-linecap="round"><g transform="translate(171.74463154295518 68.68533981295263) rotate(0 -0.0553236139044202 32.08333333333334)"><path d="M0 0 C-0.04 23.89, -0.08 47.79, -0.11 64.17 M0 0 C-0.03 18.1, -0.06 36.19, -0.11 64.17" stroke="#1e1e1e" stroke-width="2" fill="none"></path></g><g transform="translate(171.74463154295518 68.68533981295263) rotate(0 -0.0553236139044202 32.08333333333334)"><path d="M-8.62 40.66 C-5.45 49.41, -2.28 58.17, -0.11 64.17 M-8.62 40.66 C-6.22 47.29, -3.82 53.92, -0.11 64.17" stroke="#1e1e1e" stroke-width="2" fill="none"></path></g><g transform="translate(171.74463154295518 68.68533981295263) rotate(0 -0.0553236139044202 32.08333333333334)"><path d="M8.48 40.69 C5.28 49.43, 2.08 58.17, -0.11 64.17 M8.48 40.69 C6.06 47.31, 3.63 53.93, -0.11 64.17" stroke="#1e1e1e" stroke-width="2" fill="none"></path></g></g><mask></mask><g stroke-linecap="round" transform="translate(114.26330468924107 10) rotate(0 57 29)"><path d="M0 0 C29.07 -2.53, 56 -2.16, 114 0 M0 0 C23.59 0.65, 48.16 -0.25, 114 0 M114 0 C114.06 13.35, 115.32 24.95, 114 58 M114 0 C113.25 14.48, 113.48 28.46, 114 58 M114 58 C86.94 57.33, 62.04 58.19, 0 58 M114 58 C70.02 59.12, 25.16 57.58, 0 58 M0 58 C-0.93 40.28, 1.97 24.1, 0 0 M0 58 C0.22 38.86, 0.62 19.55, 0 0" stroke="#1971c2" stroke-width="2" fill="none"></path></g><g transform="translate(160.14663789541783 27.5) rotate(0 11.116666793823242 11.5)"><text x="11.116666793823242" y="18.400390625" font-family="Helvetica, Segoe UI Emoji" font-size="20px" fill="#1971c2" text-anchor="middle" style="white-space: pre;" direction="ltr" dominant-baseline="alphabetic">10</text></g><g stroke-linecap="round" transform="translate(227.26330468924107 10) rotate(0 57 29)"><path d="M0 0 C32.6 -1.63, 70.02 -0.13, 114 0 M0 0 C24.98 0.88, 49.4 0.09, 114 0 M114 0 C112.14 14.8, 115.67 27.75, 114 58 M114 0 C114.4 16.85, 113.9 33.06, 114 58 M114 58 C91.6 58.04, 64.69 58.14, 0 58 M114 58 C83.8 57.08, 52.17 56.74, 0 58 M0 58 C2.1 41.43, 1.23 25.22, 0 0 M0 58 C0.59 43.61, -0.3 27.12, 0 0" stroke="#1971c2" stroke-width="2" fill="none"></path></g><g transform="translate(273.1466378954178 27.5) rotate(0 11.116666793823242 11.5)"><text x="11.116666793823242" y="18.400390625" font-family="Helvetica, Segoe UI Emoji" font-size="20px" fill="#1971c2" text-anchor="middle" style="white-space: pre;" direction="ltr" dominant-baseline="alphabetic">15</text></g><g stroke-linecap="round" transform="translate(341.2633046892415 10) rotate(0 57 29)"><path d="M0 0 C31.49 1.61, 62.32 0.08, 114 0 M0 0 C42.63 0.28, 86.87 0.73, 114 0 M114 0 C114.11 21.42, 113.81 43.04, 114 58 M114 0 C113.59 20.85, 114.72 42.46, 114 58 M114 58 C77.08 56.83, 43.04 55.92, 0 58 M114 58 C74.64 58.4, 34.01 58.62, 0 58 M0 58 C-0.5 38.33, 0.03 21.34, 0 0 M0 58 C-0.72 42.12, 0.01 26.5, 0 0" stroke="#1971c2" stroke-width="2" fill="none"></path></g><g transform="translate(387.1466378954183 27.5) rotate(0 11.116666793823242 11.5)"><text x="11.116666793823242" y="18.400390625" font-family="Helvetica, Segoe UI Emoji" font-size="20px" fill="#1971c2" text-anchor="middle" style="white-space: pre;" direction="ltr" dominant-baseline="alphabetic">20</text></g><g stroke-linecap="round" transform="translate(454.2633046892415 10) rotate(0 57 29)"><path d="M0 0 C45.6 -0.19, 86.38 -1.55, 114 0 M0 0 C27.6 -0.48, 53.22 0.48, 114 0 M114 0 C115.42 17.03, 113.2 34.63, 114 58 M114 0 C114.61 14.13, 113.78 28.38, 114 58 M114 58 C82.67 57.84, 48.83 57.98, 0 58 M114 58 C71.49 58.37, 28.89 58.63, 0 58 M0 58 C-0.29 47.27, 0.66 33.84, 0 0 M0 58 C-0.82 38.66, -1.07 19.5, 0 0" stroke="#1971c2" stroke-width="2" fill="none"></path></g><g transform="translate(500.1466378954183 27.5) rotate(0 11.116666793823242 11.5)"><text x="11.116666793823242" y="18.400390625" font-family="Helvetica, Segoe UI Emoji" font-size="20px" fill="#1971c2" text-anchor="middle" style="white-space: pre;" direction="ltr" dominant-baseline="alphabetic">25</text></g><g stroke-linecap="round" transform="translate(114.26330468924107 134.83333333333348) rotate(0 57 29)"><path d="M0 0 C32.65 0.25, 61.62 -0.72, 114 0 M0 0 C43.84 1.32, 87.68 0.62, 114 0 M114 0 C113.04 13.97, 115.23 28.21, 114 58 M114 0 C114.31 18.5, 113.24 35.37, 114 58 M114 58 C72.23 60.97, 34.38 60.47, 0 58 M114 58 C85.95 57.94, 59.35 58.92, 0 58 M0 58 C-1.24 36.59, 0.93 16.29, 0 0 M0 58 C-0.45 36.28, -0.09 13.62, 0 0" stroke="#f08c00" stroke-width="2" fill="none"></path></g><g transform="translate(124.34663675100865 154.2333333333335) rotate(0 46.91666793823242 9.599999999999994)"><text x="46.91666793823242" y="15.45" font-family="Cascadia, Segoe UI Emoji" font-size="16px" fill="#f08c00" text-anchor="middle" style="white-space: pre;" direction="ltr" dominant-baseline="alphabetic">{"temp":5}</text></g><g stroke-linecap="round" transform="translate(227.26330468924107 134.83333333333348) rotate(0 57 29)"><path d="M0 0 C34.12 2.13, 63.35 0.54, 114 0 M0 0 C38.92 -0.62, 78.16 0.03, 114 0 M114 0 C114.75 16.98, 115.32 38.44, 114 58 M114 0 C114.34 20.51, 114.72 38.58, 114 58 M114 58 C67.59 57.75, 25.08 57.14, 0 58 M114 58 C90.47 58.7, 65.56 57.66, 0 58 M0 58 C1.16 41.1, 1.23 23.93, 0 0 M0 58 C0.58 40.57, -0.4 20.82, 0 0" stroke="#f08c00" stroke-width="2" fill="none"></path></g><g transform="translate(237.34663675100865 154.2333333333335) rotate(0 46.91666793823242 9.599999999999994)"><text x="46.91666793823242" y="15.45" font-family="Cascadia, Segoe UI Emoji" font-size="16px" fill="#f08c00" text-anchor="middle" style="white-space: pre;" direction="ltr" dominant-baseline="alphabetic">{"temp":4}</text></g><g stroke-linecap="round" transform="translate(341.26330468924107 134.83333333333348) rotate(0 57 29)"><path d="M0 0 C43.08 -0.29, 83.84 -1.2, 114 0 M0 0 C24.47 1.13, 49.08 0.38, 114 0 M114 0 C115.02 12.41, 112.56 27.17, 114 58 M114 0 C115.49 22.67, 115.24 43.92, 114 58 M114 58 C84.13 56.57, 57.98 58.32, 0 58 M114 58 C72.95 58.12, 32.46 58.25, 0 58 M0 58 C-0.21 41.45, -1.85 26.7, 0 0 M0 58 C0.92 36.81, 1.12 14.83, 0 0" stroke="#f08c00" stroke-width="2" fill="none"></path></g><g transform="translate(351.34663675100865 154.2333333333335) rotate(0 46.91666793823242 9.599999999999994)"><text x="46.91666793823242" y="15.45" font-family="Cascadia, Segoe UI Emoji" font-size="16px" fill="#f08c00" text-anchor="middle" style="white-space: pre;" direction="ltr" dominant-baseline="alphabetic">{"temp":2}</text></g><g stroke-linecap="round" transform="translate(454.26330468924107 134.83333333333348) rotate(0 57 29)"><path d="M0 0 C30.21 -1.22, 63.44 1.12, 114 0 M0 0 C43.35 0.27, 88.94 0.25, 114 0 M114 0 C115.19 17.35, 111.96 32.98, 114 58 M114 0 C113.88 20.47, 113.58 38.62, 114 58 M114 58 C83.65 58.53, 50.06 58.4, 0 58 M114 58 C72.35 59.67, 30.57 59, 0 58 M0 58 C1.79 40.84, -1.47 27.03, 0 0 M0 58 C-0.96 38.45, -0.41 19.98, 0 0" stroke="#f08c00" stroke-width="2" fill="none"></path></g><g transform="translate(464.34663675100865 154.2333333333335) rotate(0 46.91666793823242 9.599999999999994)"><text x="46.91666793823242" y="15.45" font-family="Cascadia, Segoe UI Emoji" font-size="16px" fill="#f08c00" text-anchor="middle" style="white-space: pre;" direction="ltr" dominant-baseline="alphabetic">{"temp":6}</text></g><g transform="translate(15 29.294605751935137) rotate(0 27.149999618530273 11.5)"><text x="0" y="18.400390625" font-family="Helvetica, Segoe UI Emoji" font-size="20px" fill="#1e1e1e" text-anchor="start" style="white-space: pre;" direction="ltr" dominant-baseline="alphabetic">Times</text></g><g transform="translate(10 153.29460575193514) rotate(0 30.09166717529297 11.5)"><text x="0" y="18.400390625" font-family="Helvetica, Segoe UI Emoji" font-size="20px" fill="#1e1e1e" text-anchor="start" style="white-space: pre;" direction="ltr" dominant-baseline="alphabetic">Events</text></g></svg>