<svg version="1.1" xmlns="http://www.w3.org/2000/svg" viewBox="0 0 515.9597176536249 517.9737803441767" width="515.9597176536249" height="517.9737803441767" filter="invert(93%) hue-rotate(180deg)">
  <!-- svg-source:excalidraw -->
  
  <defs>
    <style class="style-fonts">
      @font-face {
        font-family: "Virgil";
        src: url("https://excalidraw.com/Virgil.woff2");
      }
      @font-face {
        font-family: "Cascadia";
        src: url("https://excalidraw.com/Cascadia.woff2");
      }
    </style>
    
  </defs>
  <rect x="0" y="0" width="515.9597176536249" height="517.9737803441767" fill="#ffffff"></rect><g stroke-linecap="round" transform="translate(305.8905964172536 35.81718502282871) rotate(0 97.8074124903319 92.84256921671091)"><path d="M0 0 C45.56 0, 91.11 0, 195.61 0 M0 0 C73.46 0, 146.92 0, 195.61 0 M195.61 0 C195.61 55.04, 195.61 110.07, 195.61 185.69 M195.61 0 C195.61 72.92, 195.61 145.83, 195.61 185.69 M195.61 185.69 C123.21 185.69, 50.81 185.69, 0 185.69 M195.61 185.69 C136.18 185.69, 76.75 185.69, 0 185.69 M0 185.69 C0 116.54, 0 47.4, 0 0 M0 185.69 C0 129.22, 0 72.75, 0 0" stroke="#1e1e1e" stroke-width="2" fill="none"></path></g><g transform="translate(348.57418587984193 10) rotate(0 50.66666793823242 9.200000000000003)"><text x="50.66666793823242" y="0" font-family="Helvetica, Segoe UI Emoji" font-size="16px" fill="#1e1e1e" text-anchor="middle" style="white-space: pre;" direction="ltr" dominant-baseline="text-before-edge">Session: 1234</text></g><g stroke-linecap="round" transform="translate(312.3448926729609 44.25741858798426) rotate(0 91.35311623462462 16.383982802949006)"><path d="M0 0 C60.16 0, 120.32 0, 182.71 0 M0 0 C56.22 0, 112.44 0, 182.71 0 M182.71 0 C182.71 11.12, 182.71 22.24, 182.71 32.77 M182.71 0 C182.71 9.56, 182.71 19.11, 182.71 32.77 M182.71 32.77 C113.52 32.77, 44.34 32.77, 0 32.77 M182.71 32.77 C111.23 32.77, 39.76 32.77, 0 32.77 M0 32.77 C0 22.69, 0 12.62, 0 0 M0 32.77 C0 24.98, 0 17.19, 0 0" stroke="#1e1e1e" stroke-width="1" fill="none"></path></g><g transform="translate(365.7980073817066 51.441401390933265) rotate(0 37.900001525878906 9.200000000000003)"><text x="37.900001525878906" y="0" font-family="Helvetica, Segoe UI Emoji" font-size="16px" fill="#1e1e1e" text-anchor="middle" style="white-space: pre;" direction="ltr" dominant-baseline="text-before-edge">Expiry Info</text></g><g stroke-linecap="round" transform="translate(312.3448926729609 87.94803939584827) rotate(0 91.35311623462462 60.57108793817507)"><path d="M0 0 C66.18 0, 132.36 0, 182.71 0 M0 0 C64.88 0, 129.77 0, 182.71 0 M182.71 0 C182.71 36.99, 182.71 73.98, 182.71 121.14 M182.71 0 C182.71 36.87, 182.71 73.74, 182.71 121.14 M182.71 121.14 C110.97 121.14, 39.23 121.14, 0 121.14 M182.71 121.14 C135.7 121.14, 88.69 121.14, 0 121.14 M0 121.14 C0 84.93, 0 48.72, 0 0 M0 121.14 C0 75.72, 0 30.3, 0 0" stroke="#1e1e1e" stroke-width="1" fill="none"></path></g><g transform="translate(387.0146764643482 139.31912733402334) rotate(0 16.683332443237305 9.2)"><text x="16.683332443237305" y="0" font-family="Helvetica, Segoe UI Emoji" font-size="16px" fill="#1e1e1e" text-anchor="middle" style="white-space: pre;" direction="ltr" dominant-baseline="text-before-edge">Data</text></g><g stroke-linecap="round" transform="translate(310.3448926729611 322.2886419107549) rotate(0 97.8074124903319 92.8425692167109)"><path d="M0 0 C44.9 0, 89.81 0, 195.61 0 M0 0 C61.51 0, 123.02 0, 195.61 0 M195.61 0 C195.61 71.23, 195.61 142.46, 195.61 185.69 M195.61 0 C195.61 38.23, 195.61 76.47, 195.61 185.69 M195.61 185.69 C142.81 185.69, 90 185.69, 0 185.69 M195.61 185.69 C155.33 185.69, 115.05 185.69, 0 185.69 M0 185.69 C0 128.25, 0 70.81, 0 0 M0 185.69 C0 140.52, 0 95.36, 0 0" stroke="#1e1e1e" stroke-width="2" fill="none"></path></g><g transform="translate(353.02848213554944 296.47145688792614) rotate(0 50.66666793823242 9.200000000000003)"><text x="50.66666793823242" y="0" font-family="Helvetica, Segoe UI Emoji" font-size="16px" fill="#1e1e1e" text-anchor="middle" style="white-space: pre;" direction="ltr" dominant-baseline="text-before-edge">Session: 4321</text></g><g stroke-linecap="round" transform="translate(316.7991889286686 330.7288754759104) rotate(0 91.35311623462462 16.383982802949006)"><path d="M0 0 C66.03 0, 132.06 0, 182.71 0 M0 0 C56.02 0, 112.04 0, 182.71 0 M182.71 0 C182.71 7.07, 182.71 14.13, 182.71 32.77 M182.71 0 C182.71 9.62, 182.71 19.23, 182.71 32.77 M182.71 32.77 C136.98 32.77, 91.26 32.77, 0 32.77 M182.71 32.77 C119.22 32.77, 55.72 32.77, 0 32.77 M0 32.77 C0 21.64, 0 10.51, 0 0 M0 32.77 C0 21.81, 0 10.86, 0 0" stroke="#1e1e1e" stroke-width="1" fill="none"></path></g><g transform="translate(370.25230363741434 337.9128582788594) rotate(0 37.900001525878906 9.200000000000003)"><text x="37.900001525878906" y="0" font-family="Helvetica, Segoe UI Emoji" font-size="16px" fill="#1e1e1e" text-anchor="middle" style="white-space: pre;" direction="ltr" dominant-baseline="text-before-edge">Expiry Info</text></g><g stroke-linecap="round" transform="translate(316.7991889286686 374.4194962837744) rotate(0 91.35311623462462 60.571087938175054)"><path d="M0 0 C43.19 0, 86.37 0, 182.71 0 M0 0 C70.54 0, 141.09 0, 182.71 0 M182.71 0 C182.71 29.61, 182.71 59.22, 182.71 121.14 M182.71 0 C182.71 39.7, 182.71 79.41, 182.71 121.14 M182.71 121.14 C128.73 121.14, 74.75 121.14, 0 121.14 M182.71 121.14 C118.85 121.14, 54.99 121.14, 0 121.14 M0 121.14 C0 87.21, 0 53.28, 0 0 M0 121.14 C0 85.84, 0 50.54, 0 0" stroke="#1e1e1e" stroke-width="1" fill="none"></path></g><g transform="translate(391.46897272005594 425.79058422194953) rotate(0 16.683332443237305 9.200000000000003)"><text x="16.683332443237305" y="0" font-family="Helvetica, Segoe UI Emoji" font-size="16px" fill="#1e1e1e" text-anchor="middle" style="white-space: pre;" direction="ltr" dominant-baseline="text-before-edge">Data</text></g><g stroke-linecap="round" transform="translate(10 238.38279058656158) rotate(0 71.99022746750279 41.70468349841562)"><path d="M0 0 C45.31 0, 90.62 0, 143.98 0 M0 0 C47.86 0, 95.72 0, 143.98 0 M143.98 0 C143.98 21.9, 143.98 43.8, 143.98 83.41 M143.98 0 C143.98 20.13, 143.98 40.27, 143.98 83.41 M143.98 83.41 C91.16 83.41, 38.34 83.41, 0 83.41 M143.98 83.41 C109.97 83.41, 75.97 83.41, 0 83.41 M0 83.41 C0 63.64, 0 43.87, 0 0 M0 83.41 C0 65.78, 0 48.15, 0 0" stroke="#1e1e1e" stroke-width="2" fill="none"></path></g><g transform="translate(32.2502543519945 212.56560556373293) rotate(0 50.20833206176758 9.2)"><text x="50.20833206176758" y="0" font-family="Helvetica, Segoe UI Emoji" font-size="16px" fill="#1e1e1e" text-anchor="middle" style="white-space: pre;" direction="ltr" dominant-baseline="text-before-edge">Sessions Map</text></g><g stroke-linecap="round" transform="translate(17.44726491043116 245.33357116963091) rotate(0 64.54296255707175 14.200000000000003)"><path d="M0 0 C51.32 0, 102.64 0, 129.09 0 M0 0 C38.94 0, 77.87 0, 129.09 0 M129.09 0 C129.09 11.03, 129.09 22.07, 129.09 28.4 M129.09 0 C129.09 10.12, 129.09 20.24, 129.09 28.4 M129.09 28.4 C80.79 28.4, 32.5 28.4, 0 28.4 M129.09 28.4 C80.76 28.4, 32.44 28.4, 0 28.4 M0 28.4 C0 17.8, 0 7.21, 0 0 M0 28.4 C0 22.16, 0 15.93, 0 0" stroke="#1e1e1e" stroke-width="1" fill="none"></path></g><g transform="translate(64.19022823044224 250.33357116963091) rotate(0 17.799999237060547 9.200000000000003)"><text x="17.799999237060547" y="0" font-family="Helvetica, Segoe UI Emoji" font-size="16px" fill="#1e1e1e" text-anchor="middle" style="white-space: pre;" direction="ltr" dominant-baseline="text-before-edge">1234</text></g><g stroke-linecap="round" transform="translate(16.9226552019652 282.76794121528826) rotate(0 64.54296255707175 14.200000000000003)"><path d="M0 0 C48.68 0, 97.36 0, 129.09 0 M0 0 C38.84 0, 77.67 0, 129.09 0 M129.09 0 C129.09 11.08, 129.09 22.15, 129.09 28.4 M129.09 0 C129.09 10.08, 129.09 20.17, 129.09 28.4 M129.09 28.4 C86.57 28.4, 44.05 28.4, 0 28.4 M129.09 28.4 C100.62 28.4, 72.15 28.4, 0 28.4 M0 28.4 C0 21.71, 0 15.03, 0 0 M0 28.4 C0 17.97, 0 7.54, 0 0" stroke="#1e1e1e" stroke-width="1" fill="none"></path></g><g transform="translate(63.665618521976285 287.76794121528826) rotate(0 17.799999237060547 9.200000000000003)"><text x="17.799999237060547" y="0" font-family="Helvetica, Segoe UI Emoji" font-size="16px" fill="#1e1e1e" text-anchor="middle" style="white-space: pre;" direction="ltr" dominant-baseline="text-before-edge">4321</text></g><g stroke-linecap="round"><g transform="translate(147.53319002457465 254.36241317774034) rotate(0 77.68221886897754 -58.74871736221036)"><path d="M0 0 C60.27 -45.58, 120.54 -91.16, 155.36 -117.5 M0 0 C35.07 -26.52, 70.14 -53.05, 155.36 -117.5" stroke="#1e1e1e" stroke-width="1" fill="none"></path></g><g transform="translate(147.53319002457465 254.36241317774034) rotate(0 77.68221886897754 -58.74871736221036)"><path d="M8 0 C8 0.46, 7.96 0.93, 7.88 1.39 C7.8 1.85, 7.68 2.3, 7.52 2.74 C7.36 3.17, 7.16 3.6, 6.93 4 C6.7 4.4, 6.43 4.79, 6.13 5.14 C5.83 5.5, 5.5 5.83, 5.14 6.13 C4.79 6.43, 4.4 6.7, 4 6.93 C3.6 7.16, 3.17 7.36, 2.74 7.52 C2.3 7.68, 1.85 7.8, 1.39 7.88 C0.93 7.96, 0.46 8, 0 8 C-0.46 8, -0.93 7.96, -1.39 7.88 C-1.85 7.8, -2.3 7.68, -2.74 7.52 C-3.17 7.36, -3.6 7.16, -4 6.93 C-4.4 6.7, -4.79 6.43, -5.14 6.13 C-5.5 5.83, -5.83 5.5, -6.13 5.14 C-6.43 4.79, -6.7 4.4, -6.93 4 C-7.16 3.6, -7.36 3.17, -7.52 2.74 C-7.68 2.3, -7.8 1.85, -7.88 1.39 C-7.96 0.93, -8 0.46, -8 0 C-8 -0.46, -7.96 -0.93, -7.88 -1.39 C-7.8 -1.85, -7.68 -2.3, -7.52 -2.74 C-7.36 -3.17, -7.16 -3.6, -6.93 -4 C-6.7 -4.4, -6.43 -4.79, -6.13 -5.14 C-5.83 -5.5, -5.5 -5.83, -5.14 -6.13 C-4.79 -6.43, -4.4 -6.7, -4 -6.93 C-3.6 -7.16, -3.17 -7.36, -2.74 -7.52 C-2.3 -7.68, -1.85 -7.8, -1.39 -7.88 C-0.93 -7.96, -0.46 -8, 0 -8 C0.46 -8, 0.93 -7.96, 1.39 -7.88 C1.85 -7.8, 2.3 -7.68, 2.74 -7.52 C3.17 -7.36, 3.6 -7.16, 4 -6.93 C4.4 -6.7, 4.79 -6.43, 5.14 -6.13 C5.5 -5.83, 5.83 -5.5, 6.13 -5.14 C6.43 -4.79, 6.7 -4.4, 6.93 -4 C7.16 -3.6, 7.36 -3.17, 7.52 -2.74 C7.68 -2.3, 7.8 -1.85, 7.88 -1.39 C7.96 -0.93, 7.98 -0.23, 8 0 C8.02 0.23, 8.02 -0.23, 8 0" stroke="none" stroke-width="0" fill="#1e1e1e"></path></g><g transform="translate(147.53319002457465 254.36241317774034) rotate(0 77.68221886897754 -58.74871736221036)"><path d="M155.36 -117.5 L148.35 -104.24 L140.7 -114.35 L155.36 -117.5" stroke="none" stroke-width="0" fill="#1e1e1e" fill-rule="evenodd"></path><path d="M155.36 -117.5 C152.64 -112.36, 149.92 -107.21, 148.35 -104.24 M155.36 -117.5 C153.78 -114.51, 152.2 -111.51, 148.35 -104.24 M148.35 -104.24 C146.35 -106.88, 144.35 -109.52, 140.7 -114.35 M148.35 -104.24 C145.32 -108.24, 142.29 -112.24, 140.7 -114.35 M140.7 -114.35 C145.54 -115.39, 150.39 -116.43, 155.36 -117.5 M140.7 -114.35 C144.54 -115.18, 148.39 -116, 155.36 -117.5 M155.36 -117.5 C155.36 -117.5, 155.36 -117.5, 155.36 -117.5 M155.36 -117.5 C155.36 -117.5, 155.36 -117.5, 155.36 -117.5" stroke="#1e1e1e" stroke-width="1" fill="none"></path></g></g><mask></mask><g stroke-linecap="round"><g transform="translate(147.0085803161087 301.8283485981964) rotate(0 81.66815617842599 49.96411612148256)"><path d="M0 0 C46.93 28.71, 93.86 57.42, 163.34 99.93 M0 0 C34.38 21.03, 68.76 42.07, 163.34 99.93" stroke="#1e1e1e" stroke-width="1" fill="none"></path></g><g transform="translate(147.0085803161087 301.8283485981964) rotate(0 81.66815617842599 49.96411612148256)"><path d="M8 0 C8 0.46, 7.96 0.93, 7.88 1.39 C7.8 1.85, 7.68 2.3, 7.52 2.74 C7.36 3.17, 7.16 3.6, 6.93 4 C6.7 4.4, 6.43 4.79, 6.13 5.14 C5.83 5.5, 5.5 5.83, 5.14 6.13 C4.79 6.43, 4.4 6.7, 4 6.93 C3.6 7.16, 3.17 7.36, 2.74 7.52 C2.3 7.68, 1.85 7.8, 1.39 7.88 C0.93 7.96, 0.46 8, 0 8 C-0.46 8, -0.93 7.96, -1.39 7.88 C-1.85 7.8, -2.3 7.68, -2.74 7.52 C-3.17 7.36, -3.6 7.16, -4 6.93 C-4.4 6.7, -4.79 6.43, -5.14 6.13 C-5.5 5.83, -5.83 5.5, -6.13 5.14 C-6.43 4.79, -6.7 4.4, -6.93 4 C-7.16 3.6, -7.36 3.17, -7.52 2.74 C-7.68 2.3, -7.8 1.85, -7.88 1.39 C-7.96 0.93, -8 0.46, -8 0 C-8 -0.46, -7.96 -0.93, -7.88 -1.39 C-7.8 -1.85, -7.68 -2.3, -7.52 -2.74 C-7.36 -3.17, -7.16 -3.6, -6.93 -4 C-6.7 -4.4, -6.43 -4.79, -6.13 -5.14 C-5.83 -5.5, -5.5 -5.83, -5.14 -6.13 C-4.79 -6.43, -4.4 -6.7, -4 -6.93 C-3.6 -7.16, -3.17 -7.36, -2.74 -7.52 C-2.3 -7.68, -1.85 -7.8, -1.39 -7.88 C-0.93 -7.96, -0.46 -8, 0 -8 C0.46 -8, 0.93 -7.96, 1.39 -7.88 C1.85 -7.8, 2.3 -7.68, 2.74 -7.52 C3.17 -7.36, 3.6 -7.16, 4 -6.93 C4.4 -6.7, 4.79 -6.43, 5.14 -6.13 C5.5 -5.83, 5.83 -5.5, 6.13 -5.14 C6.43 -4.79, 6.7 -4.4, 6.93 -4 C7.16 -3.6, 7.36 -3.17, 7.52 -2.74 C7.68 -2.3, 7.8 -1.85, 7.88 -1.39 C7.96 -0.93, 7.98 -0.23, 8 0 C8.02 0.23, 8.02 -0.23, 8 0" stroke="none" stroke-width="0" fill="#1e1e1e"></path></g><g transform="translate(147.0085803161087 301.8283485981964) rotate(0 81.66815617842599 49.96411612148256)"><path d="M163.34 99.93 L148.43 98.24 L155.05 87.43 L163.34 99.93" stroke="none" stroke-width="0" fill="#1e1e1e" fill-rule="evenodd"></path><path d="M163.34 99.93 C159.05 99.44, 154.77 98.96, 148.43 98.24 M163.34 99.93 C160.2 99.57, 157.06 99.22, 148.43 98.24 M148.43 98.24 C149.98 95.71, 151.53 93.18, 155.05 87.43 M148.43 98.24 C150.85 94.29, 153.27 90.34, 155.05 87.43 M155.05 87.43 C157.8 91.57, 160.54 95.71, 163.34 99.93 M155.05 87.43 C158.25 92.25, 161.44 97.07, 163.34 99.93 M163.34 99.93 C163.34 99.93, 163.34 99.93, 163.34 99.93 M163.34 99.93 C163.34 99.93, 163.34 99.93, 163.34 99.93" stroke="#1e1e1e" stroke-width="1" fill="none"></path></g></g><mask></mask></svg>