<svg version="1.1" xmlns="http://www.w3.org/2000/svg" viewBox="0 0 414.2855580100818 201.86622043547965" width="414.2855580100818" height="201.86622043547965" filter="invert(93%) hue-rotate(180deg)">
  <!-- svg-source:excalidraw -->
  
  <defs>
    <style class="style-fonts">
      @font-face {
        font-family: "Virgil";
        src: url("https://excalidraw.com/Virgil.woff2");
      }
      @font-face {
        font-family: "Cascadia";
        src: url("https://excalidraw.com/Cascadia.woff2");
      }
      @font-face {
        font-family: "Assistant";
        src: url("https://excalidraw.com/Assistant-Regular.woff2");
      }
    </style>
    
  </defs>
  <g stroke-linecap="round" transform="translate(10 10) rotate(0 37.660258785620954 29)"><path d="M0 0 C21.31 1.49, 42.3 0.61, 75.32 0 M0 0 C26.2 -0.72, 52.2 0.14, 75.32 0 M75.32 0 C74.66 11.68, 77.55 27.05, 75.32 58 M75.32 0 C75.81 11, 75 23.95, 75.32 58 M75.32 58 C60 57.68, 45.49 58.77, 0 58 M75.32 58 C48.13 58.15, 21.4 57.93, 0 58 M0 58 C2.09 37.87, 0.54 19.72, 0 0 M0 58 C-0.39 36.54, 0.48 12.38, 0 0" stroke="#1971c2" stroke-width="2" fill="none"></path></g><g transform="translate(30.985259548560407 27.5) rotate(0 16.674999237060547 11.5)"><text x="16.674999237060547" y="18.400390625" font-family="Helvetica, Segoe UI Emoji" font-size="20px" fill="#1971c2" text-anchor="middle" style="white-space: pre;" direction="ltr" dominant-baseline="alphabetic">100</text></g><g stroke-linecap="round" transform="translate(86.1571013692701 10) rotate(0 37.660258785620954 29)"><path d="M0 0 C28.75 0.37, 57.05 0.2, 75.32 0 M0 0 C20.28 0.22, 42.19 -1.03, 75.32 0 M75.32 0 C73.94 14.14, 76.51 28.39, 75.32 58 M75.32 0 C74.13 12.56, 74.19 24.77, 75.32 58 M75.32 58 C52.6 59.25, 25.62 58.23, 0 58 M75.32 58 C46.66 57.64, 16.24 59.28, 0 58 M0 58 C1.68 41.46, -1.43 23.7, 0 0 M0 58 C0 36.27, -1.31 13.77, 0 0" stroke="#1971c2" stroke-width="2" fill="none"></path></g><g transform="translate(107.1423609178305 27.5) rotate(0 16.674999237060547 11.5)"><text x="16.674999237060547" y="18.400390625" font-family="Helvetica, Segoe UI Emoji" font-size="20px" fill="#1971c2" text-anchor="middle" style="white-space: pre;" direction="ltr" dominant-baseline="alphabetic">101</text></g><g stroke-linecap="round" transform="translate(161.27422451900384 10) rotate(0 37.660258785620954 29)"><path d="M0 0 C24.3 0.23, 50.74 -1.69, 75.32 0 M0 0 C27.36 1.31, 56.57 -0.55, 75.32 0 M75.32 0 C73.77 17.54, 75.94 34.83, 75.32 58 M75.32 0 C74.98 19.07, 75.52 37.72, 75.32 58 M75.32 58 C51.79 58.19, 26.09 58.76, 0 58 M75.32 58 C58.97 58.63, 43.61 59.45, 0 58 M0 58 C2.14 40.85, -1.52 22.09, 0 0 M0 58 C0.75 37.52, 1.44 14.8, 0 0" stroke="#1971c2" stroke-width="2" fill="none"></path></g><g transform="translate(182.25948406756424 27.5) rotate(0 16.674999237060547 11.5)"><text x="16.674999237060547" y="18.400390625" font-family="Helvetica, Segoe UI Emoji" font-size="20px" fill="#1971c2" text-anchor="middle" style="white-space: pre;" direction="ltr" dominant-baseline="alphabetic">103</text></g><g stroke-linecap="round" transform="translate(238.3885291822212 10) rotate(0 37.660258785620954 29)"><path d="M0 0 C30.93 -0.62, 59.55 1.53, 75.32 0 M0 0 C15.04 0.5, 31.36 -0.46, 75.32 0 M75.32 0 C74.19 13.29, 74.18 28.7, 75.32 58 M75.32 0 C76.23 21.44, 76.29 44.05, 75.32 58 M75.32 58 C50.18 59.83, 24.97 59.8, 0 58 M75.32 58 C54.07 57.79, 31.62 57.26, 0 58 M0 58 C0.12 38.86, -0.97 17.54, 0 0 M0 58 C-0.96 40.98, -0.27 26.12, 0 0" stroke="#e03131" stroke-width="2" fill="none"></path></g><g transform="translate(259.3737887307816 27.5) rotate(0 16.674999237060547 11.5)"><text x="16.674999237060547" y="18.400390625" font-family="Helvetica, Segoe UI Emoji" font-size="20px" fill="#e03131" text-anchor="middle" style="white-space: pre;" direction="ltr" dominant-baseline="alphabetic">102</text></g><g stroke-linecap="round" transform="translate(314.5456305514913 10) rotate(0 37.660258785620954 29)"><path d="M0 0 C18.36 0.38, 39.51 -2.26, 75.32 0 M0 0 C23.73 1.09, 47.55 -0.16, 75.32 0 M75.32 0 C76.5 15.29, 74.29 28.78, 75.32 58 M75.32 0 C76.07 14.07, 76 28.15, 75.32 58 M75.32 58 C46.67 57.55, 18.07 60, 0 58 M75.32 58 C53.84 57.96, 31.06 57.71, 0 58 M0 58 C-0.21 39.19, 1.47 18.32, 0 0 M0 58 C-0.69 45.18, 0.77 32.12, 0 0" stroke="#e03131" stroke-width="2" fill="none"></path></g><g transform="translate(335.5308901000517 27.5) rotate(0 16.674999237060547 11.5)"><text x="16.674999237060547" y="18.400390625" font-family="Helvetica, Segoe UI Emoji" font-size="20px" fill="#e03131" text-anchor="middle" style="white-space: pre;" direction="ltr" dominant-baseline="alphabetic">105</text></g><g stroke-linecap="round"><g transform="translate(272.8034867542083 132.0919222848775) rotate(0 0.0010833466640178813 -26.342821510893373)"><path d="M0 0 C0 -17.45, 0 -34.91, 0 -52.69 M0 0 C0 -18.98, 0 -37.96, 0 -52.69" stroke="#e03131" stroke-width="2" fill="none"></path></g><g transform="translate(272.8034867542083 132.0919222848775) rotate(0 0.0010833466640178813 -26.342821510893373)"><path d="M0 -52.69 L6.34 -39.09 L-6.34 -39.09 L0 -52.69" stroke="none" stroke-width="0" fill="#e03131" fill-rule="evenodd"></path><path d="M0 -52.69 C2.1 -48.18, 4.2 -43.68, 6.34 -39.09 M0 -52.69 C2.29 -47.79, 4.57 -42.89, 6.34 -39.09 M6.34 -39.09 C2.66 -39.09, -1.03 -39.09, -6.34 -39.09 M6.34 -39.09 C2.29 -39.09, -1.77 -39.09, -6.34 -39.09 M-6.34 -39.09 C-4.27 -43.53, -2.2 -47.96, 0 -52.69 M-6.34 -39.09 C-4.59 -42.84, -2.84 -46.59, 0 -52.69 M0 -52.69 C0 -52.69, 0 -52.69, 0 -52.69 M0 -52.69 C0 -52.69, 0 -52.69, 0 -52.69" stroke="#e03131" stroke-width="2" fill="none"></path></g></g><mask></mask><g transform="translate(146.08554580305054 145.86622043547965) rotate(0 129.10000610351562 23)"><text x="129.10000610351562" y="18.400390625" font-family="Helvetica, Segoe UI Emoji" font-size="20px" fill="#1e1e1e" text-anchor="middle" style="white-space: pre;" direction="ltr" dominant-baseline="alphabetic">New data starts at 102, lower</text><text x="129.10000610351562" y="41.400390625" font-family="Helvetica, Segoe UI Emoji" font-size="20px" fill="#1e1e1e" text-anchor="middle" style="white-space: pre;" direction="ltr" dominant-baseline="alphabetic">than current time 103</text></g></svg>