<svg version="1.1" xmlns="http://www.w3.org/2000/svg" viewBox="0 0 246.5947420902462 143.71949249823746" width="246.5947420902462" height="143.71949249823746" filter="invert(93%) hue-rotate(180deg)">
  <!-- svg-source:excalidraw -->
  
  <defs>
    <style class="style-fonts">
      @font-face {
        font-family: "Virgil";
        src: url("https://excalidraw.com/Virgil.woff2");
      }
      @font-face {
        font-family: "Cascadia";
        src: url("https://excalidraw.com/Cascadia.woff2");
      }
      @font-face {
        font-family: "Assistant";
        src: url("https://excalidraw.com/Assistant-Regular.woff2");
      }
    </style>
    
  </defs>
  <g stroke-linecap="round" transform="translate(10 10) rotate(0 37.660258785620954 29)"><path d="M0 0 C16.61 1.19, 34.79 -1.46, 75.32 0 M0 0 C28.27 0.98, 56.04 1.07, 75.32 0 M75.32 0 C75.15 16.76, 73.12 35.68, 75.32 58 M75.32 0 C74.44 13.35, 76.17 26.62, 75.32 58 M75.32 58 C53.52 58.19, 28.88 58.05, 0 58 M75.32 58 C53.98 58.12, 32.29 57.67, 0 58 M0 58 C-1.22 40.21, 0.83 19.24, 0 0 M0 58 C0.03 44.78, 0.42 29.48, 0 0" stroke="#1971c2" stroke-width="2" fill="none"></path></g><g transform="translate(30.985259548560407 27.5) rotate(0 16.674999237060547 11.5)"><text x="16.674999237060547" y="18.400390625" font-family="Helvetica, Segoe UI Emoji" font-size="20px" fill="#1971c2" text-anchor="middle" style="white-space: pre;" direction="ltr" dominant-baseline="alphabetic">100</text></g><g stroke-linecap="round" transform="translate(86.157101369271 10) rotate(0 37.660258785620954 29)"><path d="M0 0 C22.56 0.54, 44.69 1.25, 75.32 0 M0 0 C26.56 -1.06, 52.92 -0.9, 75.32 0 M75.32 0 C75.38 22.97, 77.42 45.78, 75.32 58 M75.32 0 C75.7 20.16, 73.96 39.46, 75.32 58 M75.32 58 C57.47 57.77, 40.41 58.3, 0 58 M75.32 58 C59.2 58.71, 42.14 58.57, 0 58 M0 58 C0.95 46.86, -0.09 33.88, 0 0 M0 58 C0.57 44.62, -0.37 33.41, 0 0" stroke="#1971c2" stroke-width="2" fill="none"></path></g><g transform="translate(107.14236091783141 27.5) rotate(0 16.674999237060547 11.5)"><text x="16.674999237060547" y="18.400390625" font-family="Helvetica, Segoe UI Emoji" font-size="20px" fill="#1971c2" text-anchor="middle" style="white-space: pre;" direction="ltr" dominant-baseline="alphabetic">101</text></g><g stroke-linecap="round" transform="translate(161.2742245190043 10) rotate(0 37.660258785620954 29)"><path d="M0 0 C16.02 -1.97, 34.81 -1.92, 75.32 0 M0 0 C22.45 -0.79, 46.17 -0.78, 75.32 0 M75.32 0 C73.65 20.36, 76.47 37.7, 75.32 58 M75.32 0 C75.56 16.56, 74.62 33.23, 75.32 58 M75.32 58 C60.83 57.42, 43.35 57.91, 0 58 M75.32 58 C59.37 58.64, 44.31 59.35, 0 58 M0 58 C1.39 45.38, 0.97 28.37, 0 0 M0 58 C0.13 42.31, 0.83 24.91, 0 0" stroke="#1971c2" stroke-width="2" fill="none"></path></g><g transform="translate(182.2594840675647 27.5) rotate(0 16.674999237060547 11.5)"><text x="16.674999237060547" y="18.400390625" font-family="Helvetica, Segoe UI Emoji" font-size="20px" fill="#1971c2" text-anchor="middle" style="white-space: pre;" direction="ltr" dominant-baseline="alphabetic">103</text></g><g stroke-linecap="round"><g transform="translate(199.33419628696038 102.03881613349017) rotate(0 0.08528373340482176 -16.519408066745086)"><path d="M0 0 C0.06 -11.69, 0.12 -23.38, 0.17 -33.04 M0 0 C0.07 -12.87, 0.13 -25.74, 0.17 -33.04" stroke="#f08c00" stroke-width="2" fill="none"></path></g><g transform="translate(199.33419628696038 102.03881613349017) rotate(0 0.08528373340482176 -16.519408066745086)"><path d="M0.17 -33.04 L6.44 -19.41 L-6.24 -19.48 L0.17 -33.04" stroke="none" stroke-width="0" fill="#f08c00" fill-rule="evenodd"></path><path d="M0.17 -33.04 C2.39 -28.22, 4.61 -23.4, 6.44 -19.41 M0.17 -33.04 C2.61 -27.73, 5.05 -22.42, 6.44 -19.41 M6.44 -19.41 C1.81 -19.44, -2.81 -19.46, -6.24 -19.48 M6.44 -19.41 C2.28 -19.43, -1.88 -19.45, -6.24 -19.48 M-6.24 -19.48 C-4.48 -23.19, -2.73 -26.91, 0.17 -33.04 M-6.24 -19.48 C-3.76 -24.73, -1.27 -29.98, 0.17 -33.04 M0.17 -33.04 C0.17 -33.04, 0.17 -33.04, 0.17 -33.04 M0.17 -33.04 C0.17 -33.04, 0.17 -33.04, 0.17 -33.04" stroke="#f08c00" stroke-width="2" fill="none"></path></g></g><mask></mask><g transform="translate(167.7518505172302 110.71949249823746) rotate(0 33.24166488647461 11.5)"><text x="0" y="18.400390625" font-family="Helvetica, Segoe UI Emoji" font-size="20px" fill="#1e1e1e" text-anchor="start" style="white-space: pre;" direction="ltr" dominant-baseline="alphabetic">Current</text></g></svg>