<svg version="1.1" xmlns="http://www.w3.org/2000/svg" viewBox="0 0 399.86614812273274 148.35974624911876" width="399.86614812273274" height="148.35974624911876" filter="invert(93%) hue-rotate(180deg)">
  <!-- svg-source:excalidraw -->
  
  <defs>
    <style class="style-fonts">
      @font-face {
        font-family: "Virgil";
        src: url("https://excalidraw.com/Virgil.woff2");
      }
      @font-face {
        font-family: "Cascadia";
        src: url("https://excalidraw.com/Cascadia.woff2");
      }
      @font-face {
        font-family: "Assistant";
        src: url("https://excalidraw.com/Assistant-Regular.woff2");
      }
    </style>
    
  </defs>
  <g stroke-linecap="round" transform="translate(10 10) rotate(0 37.660258785620954 29)"><path d="M0 0 C23.91 0.18, 49.41 -1.86, 75.32 0 M0 0 C15.23 -0.69, 32.29 -0.7, 75.32 0 M75.32 0 C76.09 14.54, 75.38 32.98, 75.32 58 M75.32 0 C76.23 17.62, 75.22 33.29, 75.32 58 M75.32 58 C52.33 57.75, 32.35 59.84, 0 58 M75.32 58 C47.11 57.52, 20.06 56.93, 0 58 M0 58 C1.18 42.89, 0.56 23.52, 0 0 M0 58 C1.15 37.56, 0.72 17.51, 0 0" stroke="#1971c2" stroke-width="2" fill="none"></path></g><g transform="translate(30.985259548560407 27.5) rotate(0 16.674999237060547 11.5)"><text x="16.674999237060547" y="18.400390625" font-family="Helvetica, Segoe UI Emoji" font-size="20px" fill="#1971c2" text-anchor="middle" style="white-space: pre;" direction="ltr" dominant-baseline="alphabetic">100</text></g><g stroke-linecap="round" transform="translate(86.1571013692701 10) rotate(0 37.660258785620954 29)"><path d="M0 0 C22.93 1.85, 49.82 -1.03, 75.32 0 M0 0 C18.46 0.92, 36.6 0.63, 75.32 0 M75.32 0 C75.08 14.46, 76.16 30.86, 75.32 58 M75.32 0 C75.13 21.98, 75.83 42.21, 75.32 58 M75.32 58 C56.65 58.93, 34.91 57.72, 0 58 M75.32 58 C55.39 57.65, 36.51 57.98, 0 58 M0 58 C0.87 33.74, -1.28 13.53, 0 0 M0 58 C0.46 39.56, 0.36 20.85, 0 0" stroke="#1971c2" stroke-width="2" fill="none"></path></g><g transform="translate(107.1423609178305 27.5) rotate(0 16.674999237060547 11.5)"><text x="16.674999237060547" y="18.400390625" font-family="Helvetica, Segoe UI Emoji" font-size="20px" fill="#1971c2" text-anchor="middle" style="white-space: pre;" direction="ltr" dominant-baseline="alphabetic">101</text></g><g stroke-linecap="round" transform="translate(161.27422451900384 10) rotate(0 37.660258785620954 29)"><path d="M0 0 C26.45 1.09, 53.87 -0.04, 75.32 0 M0 0 C26.07 -0.3, 54.09 -0.26, 75.32 0 M75.32 0 C76.99 17.1, 74.47 34.29, 75.32 58 M75.32 0 C75.31 20.49, 76.36 41.52, 75.32 58 M75.32 58 C50.49 58.38, 25.21 57.57, 0 58 M75.32 58 C50.92 58.91, 24.39 59.07, 0 58 M0 58 C0.58 44.91, 1.63 31.72, 0 0 M0 58 C-0.1 41.46, -1.17 25.77, 0 0" stroke="#1971c2" stroke-width="2" fill="none"></path></g><g transform="translate(182.25948406756424 27.5) rotate(0 16.674999237060547 11.5)"><text x="16.674999237060547" y="18.400390625" font-family="Helvetica, Segoe UI Emoji" font-size="20px" fill="#1971c2" text-anchor="middle" style="white-space: pre;" direction="ltr" dominant-baseline="alphabetic">103</text></g><g stroke-linecap="round" transform="translate(238.38852918222074 10) rotate(0 37.660258785620954 29)"><path d="M0 0 C25.51 -1.69, 49.37 -0.76, 75.32 0 M0 0 C21.65 0.52, 44.26 0.76, 75.32 0 M75.32 0 C76.04 17.99, 73.57 33.06, 75.32 58 M75.32 0 C75.93 17.69, 75.32 35.33, 75.32 58 M75.32 58 C50.89 59.82, 26.37 59.89, 0 58 M75.32 58 C49.18 57.89, 25.06 58.55, 0 58 M0 58 C-0.86 39.67, -1.88 19.53, 0 0 M0 58 C-0.27 43.72, 1.26 28.4, 0 0" stroke="#2f9e44" stroke-width="2" fill="none"></path></g><g transform="translate(259.37378873078114 27.5) rotate(0 16.674999237060547 11.5)"><text x="16.674999237060547" y="18.400390625" font-family="Helvetica, Segoe UI Emoji" font-size="20px" fill="#2f9e44" text-anchor="middle" style="white-space: pre;" direction="ltr" dominant-baseline="alphabetic">103</text></g><g stroke-linecap="round" transform="translate(314.54563055149083 10) rotate(0 37.660258785620954 29)"><path d="M0 0 C15.08 2.28, 30.48 0.33, 75.32 0 M0 0 C25.93 -1.08, 51.92 -0.01, 75.32 0 M75.32 0 C75.06 22.09, 76.29 41.74, 75.32 58 M75.32 0 C75.43 15.53, 75.02 33.33, 75.32 58 M75.32 58 C46.46 58.35, 17.15 57.49, 0 58 M75.32 58 C57.05 58.76, 38.73 57.87, 0 58 M0 58 C-0.6 35.64, 0.08 15.14, 0 0 M0 58 C-0.97 40.14, 0.09 21.21, 0 0" stroke="#2f9e44" stroke-width="2" fill="none"></path></g><g transform="translate(335.53089010005124 27.5) rotate(0 16.674999237060547 11.5)"><text x="16.674999237060547" y="18.400390625" font-family="Helvetica, Segoe UI Emoji" font-size="20px" fill="#2f9e44" text-anchor="middle" style="white-space: pre;" direction="ltr" dominant-baseline="alphabetic">105</text></g><g stroke-linecap="round"><g transform="translate(352.27375494462194 106.67906988437142) rotate(0 0.08528373340482176 -16.519408066745086)"><path d="M0 0 C0.05 -8.81, 0.09 -17.63, 0.17 -33.04 M0 0 C0.06 -12.46, 0.13 -24.91, 0.17 -33.04" stroke="#f08c00" stroke-width="2" fill="none"></path></g><g transform="translate(352.27375494462194 106.67906988437142) rotate(0 0.08528373340482176 -16.519408066745086)"><path d="M0.17 -33.04 L6.44 -19.41 L-6.24 -19.48 L0.17 -33.04" stroke="none" stroke-width="0" fill="#f08c00" fill-rule="evenodd"></path><path d="M0.17 -33.04 C1.84 -29.4, 3.51 -25.77, 6.44 -19.41 M0.17 -33.04 C2.53 -27.9, 4.9 -22.76, 6.44 -19.41 M6.44 -19.41 C2.71 -19.43, -1.03 -19.45, -6.24 -19.48 M6.44 -19.41 C3.13 -19.43, -0.18 -19.45, -6.24 -19.48 M-6.24 -19.48 C-4.05 -24.11, -1.86 -28.74, 0.17 -33.04 M-6.24 -19.48 C-4.61 -22.91, -2.99 -26.35, 0.17 -33.04 M0.17 -33.04 C0.17 -33.04, 0.17 -33.04, 0.17 -33.04 M0.17 -33.04 C0.17 -33.04, 0.17 -33.04, 0.17 -33.04" stroke="#f08c00" stroke-width="2" fill="none"></path></g></g><mask></mask><g transform="translate(320.6914091748913 115.35974624911876) rotate(0 33.24166488647461 11.5)"><text x="0" y="18.400390625" font-family="Helvetica, Segoe UI Emoji" font-size="20px" fill="#1e1e1e" text-anchor="start" style="white-space: pre;" direction="ltr" dominant-baseline="alphabetic">Current</text></g></svg>